<svg width="38" height="12" viewBox="0 0 38 12" fill="none" xmlns="http://www.w3.org/2000/svg">
<path d="M3.36 9V5.448L0.384 0.599999H1.296L3.972 4.992H4.044L6.18 0.599999H7.092L4.224 5.28V9H3.36ZM8.84625 0.599999H9.66225V5.664C9.66225 6.632 9.89825 7.388 10.3703 7.932C10.8503 8.468 11.5223 8.736 12.3863 8.736C12.9303 8.736 13.4023 8.632 13.8023 8.424C14.2103 8.208 14.5223 7.912 14.7383 7.536C14.9623 7.16 15.0663 6.728 15.0503 6.24L14.8463 0.599999H15.6623L15.4583 6.24C15.4263 7.2 15.1383 7.928 14.5943 8.424C14.0583 8.92 13.2903 9.168 12.2903 9.168C11.2103 9.168 10.3663 8.856 9.75825 8.232C9.15025 7.6 8.84625 6.736 8.84625 5.64V0.599999ZM23.7245 9L19.7885 4.692L23.4365 0.599999H24.4685L20.5205 4.356L24.8045 9H23.7245ZM18.5405 9V0.599999H19.3565V9H18.5405ZM26.603 9V0.599999H27.419V9H26.603Z" fill="black"/>
<path d="M30.428 11.072C30.244 11.072 30.078 11.038 29.93 10.97C29.782 10.898 29.664 10.784 29.576 10.628C29.492 10.472 29.45 10.27 29.45 10.022V6.56H29.99V9.968C29.99 10.184 30.034 10.344 30.122 10.448C30.214 10.552 30.34 10.604 30.5 10.604C30.576 10.604 30.65 10.596 30.722 10.58C30.798 10.56 30.862 10.538 30.914 10.514L31.046 10.952C30.974 10.984 30.884 11.012 30.776 11.036C30.672 11.06 30.556 11.072 30.428 11.072ZM32.6603 11.072C32.4003 11.072 32.1643 11.006 31.9523 10.874C31.7403 10.742 31.5703 10.556 31.4423 10.316C31.3183 10.072 31.2563 9.786 31.2563 9.458C31.2563 9.146 31.3183 8.866 31.4423 8.618C31.5703 8.37 31.7443 8.174 31.9643 8.03C32.1883 7.882 32.4443 7.808 32.7323 7.808C32.9123 7.808 33.0743 7.84 33.2183 7.904C33.3663 7.964 33.4943 8.04 33.6023 8.132V7.88H34.0943V10.244C34.0943 10.396 34.1303 10.496 34.2023 10.544C34.2783 10.588 34.3603 10.61 34.4483 10.61L34.3343 11.03C33.9503 11.03 33.7183 10.874 33.6383 10.562C33.5463 10.69 33.4203 10.808 33.2603 10.916C33.1043 11.02 32.9043 11.072 32.6603 11.072ZM32.7803 10.592C32.9323 10.592 33.0763 10.556 33.2123 10.484C33.3483 10.408 33.4623 10.314 33.5543 10.202V8.528C33.4463 8.452 33.3263 8.392 33.1943 8.348C33.0663 8.3 32.9303 8.276 32.7863 8.276C32.5943 8.276 32.4243 8.326 32.2763 8.426C32.1323 8.522 32.0183 8.658 31.9343 8.834C31.8503 9.006 31.8083 9.208 31.8083 9.44C31.8083 9.664 31.8503 9.864 31.9343 10.04C32.0183 10.212 32.1343 10.348 32.2823 10.448C32.4303 10.544 32.5963 10.592 32.7803 10.592ZM36.5735 11.072C36.3935 11.072 36.2235 11.04 36.0635 10.976C35.9075 10.908 35.7775 10.83 35.6735 10.742V11H35.1695V6.56H35.7095V8.204C35.7895 8.112 35.9055 8.024 36.0575 7.94C36.2135 7.852 36.3975 7.808 36.6095 7.808C36.8495 7.808 37.0735 7.872 37.2815 8C37.4935 8.124 37.6635 8.306 37.7915 8.546C37.9195 8.782 37.9835 9.07 37.9835 9.41C37.9835 9.658 37.9435 9.884 37.8635 10.088C37.7835 10.292 37.6755 10.468 37.5395 10.616C37.4075 10.76 37.2575 10.872 37.0895 10.952C36.9215 11.032 36.7495 11.072 36.5735 11.072ZM36.4295 10.592C36.6255 10.592 36.7975 10.544 36.9455 10.448C37.0975 10.352 37.2155 10.216 37.2995 10.04C37.3875 9.864 37.4315 9.66 37.4315 9.428C37.4315 9.188 37.3875 8.982 37.2995 8.81C37.2155 8.638 37.1015 8.506 36.9575 8.414C36.8175 8.322 36.6615 8.276 36.4895 8.276C36.3175 8.276 36.1615 8.32 36.0215 8.408C35.8855 8.492 35.7815 8.584 35.7095 8.684V10.352C35.8015 10.424 35.9095 10.482 36.0335 10.526C36.1575 10.57 36.2895 10.592 36.4295 10.592Z" fill="black"/>
</svg>
